<?xml version="1.0" encoding="UTF-8"?>
<svg id="Layer_1" data-name="Layer 1" xmlns="http://www.w3.org/2000/svg" viewBox="0 0 595.28 576.3">
  <defs>
    <style>
      .cls-1 {
        fill: #6d479c;
      }

      .cls-1, .cls-2, .cls-3 {
        stroke-width: 0px;
      }

      .cls-2 {
        fill: #8282a8;
      }

      .cls-3 {
        fill: #aeabce;
      }
    </style>
  </defs>
  <g>
    <path class="cls-3" d="m410.46,373.14l15.5-25.32-129.09-113.57-128.82,113.51,14.08,25.37m0,0l114.9-89.5,113.5,89.5"/>
    <polygon class="cls-1" points="441.25 358.45 462.49 373.14 297.7 102.7 134.61 370.55 152.65 358.25 173.45 392.69 44.67 489.8 44.67 438.47 48.14 431.65 297.7 0 550.6 436.06 550.6 437.18 550.56 489.6 421.17 392.42 441.25 358.45"/>
    <path class="cls-2" d="m404.62,383.31s-54.68-28.78-109.88-28.78-106.84,29.17-106.84,29.17l-15.31-27.75s57.85-33.04,122.15-33.04,126.52,32.58,126.52,32.58l-16.64,27.82Z"/>
  </g>
  <g>
    <g>
      <path class="cls-1" d="m64.77,546.57l7.44-20.77c1.46-4.37,2.7-8.73,3.83-12.99h.23c1.13,4.15,2.25,8.41,3.94,13.1l6.84,20.66h0l6.97,19.01h0l3.77,10.82h10.48l-25.91-71.79h-11.83l-25.8,71.79h10.14l7.78-22.63,2.13-7.19Z"/>
      <path class="cls-1" d="m163.01,556.69c-1.8-7.46-5.3-12.57-11.15-14.49v-.32c8-2.56,14.31-8.84,14.31-18.32,0-5.54-2.14-10.44-5.97-13.63-4.73-4.05-11.49-5.86-21.97-5.86-6.76,0-13.86.53-18.82,1.49v70.83h9.8v-31.1h9.24c8.9.32,12.96,4.05,15.21,13.95,2.14,8.95,3.83,15.13,5.07,17.15h10.14c-1.58-2.77-3.38-9.69-5.86-19.71Zm-23.77-18.43h-10.03v-26.2c1.58-.43,4.96-.85,9.69-.85,10.37.11,17.46,4.15,17.46,13.42,0,8.2-6.65,13.63-17.13,13.63Z"/>
      <path class="cls-1" d="m204.02,535.07l27.49-30.46h-12.17l-23.21,26.95c-1.92,2.34-3.94,4.9-5.97,7.67h-.34v-34.62h-9.8v71.79h9.8v-27.37l7.21-7.88,25.01,35.26h11.6l-29.63-41.33Z"/>
      <path class="cls-1" d="m263.85,535.49c-10.48-3.83-15.1-7.14-15.1-13.85,0-4.9,3.94-10.76,14.31-10.76,6.87,0,11.94,2.13,14.42,3.41l2.7-7.56c-3.38-1.81-9.01-3.51-16.79-3.51-14.76,0-24.56,8.31-24.56,19.49,0,10.12,7.66,16.19,20.05,20.34,10.25,3.73,14.31,7.56,14.31,14.27,0,7.24-5.86,12.25-15.89,12.25-6.76,0-13.18-2.13-17.58-4.69l-2.48,7.78c4.06,2.56,12.06,4.58,19.38,4.58,17.91,0,26.59-9.59,26.59-20.66s-6.53-16.4-19.38-21.09Z"/>
      <path class="cls-1" d="m306.43,568.62v-25.88h29.52v-7.67h-29.52v-22.69h31.21v-7.78h-41.01v71.79h42.7v-7.78h-32.9Z"/>
      <path class="cls-1" d="m400.33,562.55l-.04,13.58-1.42-1.76-23.83-34.4c-5.29-7.99-10.36-16.19-14.19-23.97l-.34.11c.57,9.05.79,17.68.79,29.61v30.67h-9.24v-71.79h10.7l24.33,36.32c5.15,7.7,9.77,14.78,13.19,21.53.02.03.03.06.04.08Z"/>
      <path class="cls-1" d="m400.29,562.46v13.66l.04-13.58s-.03-.06-.04-.08Zm-15.68-50.25h.03v-7.88h-.03v7.88Z"/>
      <path class="cls-1" d="m482.51,556.96c-1.8-7.46-5.3-12.57-11.15-14.49v-.32c8-2.56,14.31-8.84,14.31-18.32,0-5.54-2.14-10.44-5.97-13.63-4.73-4.05-11.49-5.86-21.97-5.86-6.76,0-13.86.53-18.82,1.49v70.83h9.8v-31.1h9.24c8.9.32,12.96,4.05,15.21,13.95,2.14,8.95,3.83,15.13,5.07,17.15h10.14c-1.58-2.77-3.38-9.69-5.86-19.71Zm-23.77-18.43h-10.03v-26.2c1.58-.43,4.96-.85,9.69-.85,10.37.11,17.46,4.15,17.46,13.42,0,8.2-6.65,13.63-17.13,13.63Z"/>
      <path class="cls-1" d="m539.41,504.61l-10.93,19.81c-2.93,5.43-5.52,10.12-7.66,14.81h-.23c-2.37-5.01-4.62-9.37-7.55-14.81l-10.7-19.81h-11.15l24,41.33v30.46h9.91v-30.57l25.46-41.22h-11.15Z"/>
    </g>
    <path class="cls-1" d="m426.03,504.33v7.88h-15.83v63.91h-9.91l.04-13.58s-.03-.06-.04-.08v-50.25h-15.65v-7.88h41.39Z"/>
  </g>
</svg>